<?xml version="1.0" encoding="UTF-8"?>
<svg id="Camada_2" data-name="Camada 2" xmlns="http://www.w3.org/2000/svg" viewBox="0 0 496.47 327.47">
  <defs>
    <style>
      .cls-1 {
        fill: #d32020;
      }
    </style>
  </defs>
  <g id="Camada_1-2" data-name="Camada 1">
    <g>
      <g>
        <g>
          <path d="M27.09,125.09V58.66c0-8.64-.39-14.2-1.18-16.64-.78-2.43-2.96-4.57-6.38-6.42-5.02-2.71-7.56-6.6-7.56-11.66,0-3.56,1.06-6.21,3.19-8.08,2.13-1.86,5.21-2.82,9.24-2.76,1.34.02,4.68.19,10,.53,2.02.03,3.02.04,5.04.07,9.3.03,14.74-.04,16.34-.16,1.6-.13,7.29-.89,17.1-2.45,3.25-.59,6.22-.89,8.9-.89,9.19,0,17.36,3.43,24.53,10.42,14.77,14.47,19.22,37.04,18.73,56.49-.42,16.64-2.75,33.27-13.11,47.31-6.94,9.41-18.08,15.22-29.91,13.23-2.95-.5-6.65-1.54-10.92-3.02-2.26-.78-3.73-1.23-4.28-1.36-1.62-.37-2.44.93-2.44,3.94v.82c.24,9.03.35,13.52.59,22.45.11,4.36.6,7.7,1.47,10.05.87,2.35,2.68,5.03,5.34,7.94,3.64,4,5.46,7.84,5.46,11.52,0,5.64-2.69,9.35-8.06,10.21-5.38.86-13.01-.31-22.85-4.59-13.32-5.79-30.32-17.42-31.08-32.55-.11-2.28.45-3.93,1.34-4.63.9-.7,2.99-1.17,6.3-1.69,2.02-.37,3.19-1.93,3.53-4.58.34-2.64.56-11.63.67-27.07Z"/>
          <path d="M189.47,138.16c-12.31,3.58-24.47,5.36-37.21,6.43-1.64.14-2.45,1.46-2.45,3.96,0,6.03,1.86,11.5,5.58,16.2,3.72,4.71,7.72,6.59,12,5.86,2.53-.43,5.34-1.68,8.43-4.07,3.09-2.39,5.63-5.05,7.64-7.93,1.79-2.57,3.22-4.01,4.28-4.31,1.37-.39,2.72.62,4.04,2.99,1.32,2.37,1.98,4.99,1.98,7.87,0,6.11-2.38,12.68-7.13,19.58-6.79,10.27-17.07,18.73-29.06,21.31-9.57,2.06-22.87-2.41-27.87-11.41-3.64-5.14-6.63-11.71-9.03-19.52-3.39-11.03-4.66-22.79-4.67-33.79-.01-14.68,2.05-30.55,8.08-44.28,4.15-9.46,9.27-19.35,17.74-26.22,5.38-4.37,11.29-6.64,17.5-6.85,9.33-.31,20.46,6.34,25.58,13.98,3.54,4.63,6.38,10.19,8.55,16.61,2.47,7.29,3.72,14.46,3.72,21.68,0,5.86-.71,10.79-2.14,14.87-1.42,4.08-3.27,6.42-5.54,7.04Z"/>
          <path d="M228.29,55.62c2.64-.44,4.28-.02,4.86,1.2.58,1.21,1.09,5.32,1.54,12.23.25,3.75,1.03,5.48,2.33,5.19,1-.22,1.96-1.67,2.86-4.33,4.02-11.48,9.26-17.5,15.74-18.54,4.57-.74,8.31,1.03,11.22,5.13,1.4,2.02,2.56,4.69,3.46,8.05.9,3.35,1.36,6.64,1.36,9.92,0,3.66-.55,7.57-1.66,11.76-1.1,4.19-2.54,7.83-4.29,10.9-3.21,5.81-7.16,9.51-11.82,10.95-2.56.79-4.71.71-6.44-.25-1.73-.96-4-3.3-6.82-7.13-1.05-1.47-2.03-2.08-2.94-1.83-1.41.39-2.32,1.98-2.75,4.78-.43,2.8-.64,8.51-.64,17.03,0,12.75.24,21.3.83,25.63.32,2.36.84,3.93,1.47,4.66.63.73,1.97,1.23,4.03,1.48,4.52.61,6.78,3.64,6.78,9.13,0,3.36-.73,6.56-2.18,9.6-1.46,3.04-3.39,5.4-5.8,7.1-4.82,3.4-11.9,6.81-21.24,10.05-8.89,3.09-15.66,4.04-20.26,2.97-4.11-.95-6.18-4.34-6.18-10.1,0-4.34,1.51-8.71,4.52-13.12,1.46-2.06,2.46-3.84,3.01-5.33.55-1.49.93-3.42,1.13-5.8,1.3-14.91,1.18-29.98,1.2-44.9,0-4.06-.25-6.95-.75-8.61-.5-1.66-1.51-2.87-3.01-3.63-3.57-1.76-5.35-5.18-5.35-10.19,0-4.54,1.23-8.73,3.69-12.46,2.46-3.74,6.59-7.72,12.35-11.87,7.73-5.57,14.35-8.75,19.73-9.65Z"/>
          <path d="M339.67,93.54c-12.62,1.96-24.99,5.79-37.22,9.42-1.64.48-2.45,1.75-2.45,3.8,0,4.93,1.86,9.05,5.58,12.32,3.72,3.27,7.72,4.27,12,3.01,2.53-.74,5.34-2.27,8.43-4.53,3.09-2.27,5.63-4.67,7.64-7.21,1.79-2.27,3.22-3.35,4.28-3.51,1.37-.21,2.72.77,4.04,2.95,1.32,2.18,1.98,4.54,1.98,7.1,0,5.43-2.38,11.14-7.13,17.53-7.26,10.14-17.69,18.52-29.06,22.73-8.33,3.09-21.4,1.56-27.87-5.35-3.64-3.51-6.67-8.24-9.03-14.19-3.13-7.9-4.66-16.94-4.67-26.87-.01-12.97,2.93-26.07,8.08-37.75,3.58-8.12,10.41-17.6,17.74-22.91,5.37-3.89,11.22-6.31,17.5-7.23,10.03-1.46,18.55.84,25.58,6.54,3.54,3.24,6.38,7.18,8.55,11.85,2.47,5.31,3.72,10.65,3.72,16.07,0,4.4-.71,8.14-2.14,11.2-1.43,3.05-3.27,4.76-5.54,5.04Z"/>
          <path d="M378.48,38.81c2.65.02,4.28.5,4.86,1.41.58.9,1.09,3.76,1.54,8.7.25,2.69,1.03,4.07,2.33,4.1,1,.03,1.96-.84,2.86-2.59,4.02-7.53,9.26-11.04,15.74-10.72,4.57.22,8.31,2.23,11.22,6.1,1.4,1.9,2.56,4.32,3.46,7.28.9,2.95,1.36,5.79,1.36,8.48,0,3.01-.55,6.06-1.66,9.14-1.1,3.08-2.54,5.57-4.29,7.46-3.21,3.63-7.16,5.24-11.82,4.9-2.56-.19-4.71-.9-6.44-2.17-1.73-1.27-4-3.76-6.82-7.41-1.05-1.39-2.03-2.09-2.94-2.11-1.41-.03-2.32.96-2.75,3-.43,2.04-.64,6.34-.64,13.09,0,10.1.24,17.34.83,21.13.32,2.07.84,3.55,1.47,4.35.63.8,1.97,1.61,4.03,2.47,4.52,1.92,6.78,5.32,6.78,10.09,0,2.92-.73,5.46-2.18,7.65-1.46,2.19-3.39,4.38-5.8,5.33-4.82,1.91-11.9,3.08-21.24,4.13-8.89,1-15.66.86-20.26-.86-4.11-1.54-6.18-4.96-6.18-10.39,0-4.09,1.51-8.01,4.52-11.62,1.46-1.68,2.46-3.13,3.01-4.37.55-1.24.93-2.88,1.13-4.9,1.22-11.85,1.22-23.87,1.2-35.76,0-3.02-.25-5.14-.75-6.4-.5-1.26-1.51-2.24-3.01-2.94-3.57-1.64-5.35-4.2-5.35-7.63,0-3.1,1.23-5.79,3.69-8.04,2.46-2.25,6.59-4.49,12.35-6.63,7.72-2.88,14.34-4.27,19.73-4.24Z"/>
          <path d="M488.84,114.24c-11.86-5.9-24.25-10.75-36.97-14.43-1.63-.47-2.44.25-2.44,2.13,0,4.53,1.85,9.32,5.55,14.68,3.7,5.36,7.67,9.01,11.92,10.85,2.52,1.09,5.31,1.69,8.38,1.79s5.6-.34,7.59-1.38c1.78-.92,3.2-1.11,4.25-.54,1.36.74,2.7,2.73,4.01,6.04,1.31,3.31,1.97,6.37,1.97,9.09,0,5.77-2.36,9.77-7.08,12.04-8.3,3.9-20.85,3.22-28.87-.31-11.02-4.85-20.15-13.56-27.69-23.2-3.62-4.98-6.63-10.55-8.97-16.75-3.11-8.22-4.47-16.64-4.64-24.73-.2-9.01,2.8-20.91,8.02-28.44,4.65-6.69,10.5-11.68,17.62-14.51,5.35-2.13,11.27-2.72,17.39-1.99,9.43,1.13,20.48,8.52,25.41,16.7,3.51,5.03,6.34,10.94,8.5,17.59,2.45,7.57,3.7,14.82,3.7,21.31,0,5.28-.71,9.26-2.12,11.87-1.42,2.62-3.25,3.3-5.51,2.18Z"/>
          <path d="M434.82,30.75c-2.45.86-4.83-1.86-5.69-3.02-.86-1.17-1.29-2.61-1.29-4.34,0-1.58.66-3.24,1.98-5,1.32-1.76,3.62-4.02,6.9-6.88,6.2-5.39,10.66-8.3,13.38-8.25,1.32.03,3.46,1.11,6.42,3.39,2.96,2.28,6.01,5.18,9.12,8.78,2.8,3.24,4.73,5.92,5.79,7.86,1.06,1.94,1.59,3.76,1.59,5.42s-.44,3.16-1.32,4.32c-.42.56-1.28,1.41-2.18,2.13-1.19.94-3,.91-4.47-.08-8.88-5.96-19.97-7.93-30.25-4.33Z"/>
        </g>
        <g>
          <path d="M55.81,212.2c5.24,1.81,10.29,5.1,15.17,9.82,2.29,2.21,3.89,3.37,4.79,3.57.65.14,1.69.11,3.12-.09.47-.07.99-.05,1.56.06,1.86.35,3.5,1.95,4.9,4.77,3.44,6.82,5.16,14.7,5.16,23.65,0,6.3-1.49,10.64-4.47,13.14-1.61,1.33-3.43,1.87-5.43,1.59-1.83-.25-3.32-1.04-4.47-2.37-1.15-1.32-2.26-3.55-3.34-6.68-1.53-4.43-2.8-7.73-3.77-9.78-.97-2.05-2.15-4-3.55-5.85-3.48-4.51-7.12-7.4-10.92-8.55-3.69-1.12-6.63-.03-8.8,3.48-2.17,3.51-3.26,8.87-3.26,15.98,0,9.78,1.55,19.15,4.68,27.58,4.2,11.3,10.29,16.96,18.19,17.72,2.9.28,5.78-.15,8.64-1.25,2.85-1.1,5.06-2.67,6.64-4.63,1.34-1.66,2.47-2.45,3.34-2.37,1.26.11,2.33,1.01,3.23,2.66.9,1.66,1.34,3.59,1.34,5.81,0,2.8-.63,5.87-1.88,9.24-1.26,3.37-2.76,5.99-4.52,7.89-.75.79-2.33,1.48-4.68,2.02-1.35.31-3.17,1.14-5.43,2.56-5.31,3.36-10.83,5.16-16.57,5.15-5.99,0-11.97-2-17.92-6.33-7.58-5.52-13.89-16.28-16.41-25.1-3.52-12.33-5.96-23.64-5.92-35.75.04-11.27,1.42-24.09,7.43-34.79,4.32-7.69,9.92-12.19,16.84-14.04,5.27-1.42,10.71-1.03,16.3.91Z"/>
          <path d="M123.68,224.13c2.31-.04,3.75.5,4.26,1.63.51,1.13.95,4.78,1.35,10.79.22,3.27.9,4.88,2.05,4.85.88-.02,1.72-1.11,2.51-3.3,3.52-9.44,8.11-14.68,13.79-15.26,4-.41,7.28,1.51,9.83,5.84,1.23,2.13,2.24,4.94,3.03,8.38.79,3.44,1.19,6.76,1.19,9.95,0,3.57-.48,7.23-1.45,10.95-.97,3.72-2.22,6.74-3.76,9.11-2.81,4.51-6.27,6.75-10.36,6.86-2.24.06-4.12-.53-5.64-1.75s-3.51-3.72-5.97-7.57c-.92-1.47-1.78-2.2-2.57-2.2-1.23,0-2.03,1.12-2.41,3.32-.37,2.2-.56,6.83-.56,13.66,0,10.21.21,16.89.73,20.38.28,1.91.74,3.25,1.29,3.99.55.74,1.73,1.49,3.53,2.26,3.96,1.73,5.94,4.69,5.94,8.79,0,2.51-.64,4.67-1.91,6.5-1.28,1.83-2.97,3.03-5.08,3.62-4.22,1.18-10.42,1.77-18.6,1.76-7.78,0-13.71-.95-17.74-2.94-3.6-1.77-5.41-4.92-5.41-9.38,0-3.36,1.32-6.35,3.96-8.9,1.27-1.18,2.15-2.26,2.64-3.25.48-.99.81-2.36.99-4.13,1.15-11.33,1.07-22.88,1.06-34.24,0-3.14-.22-5.45-.66-6.87-.44-1.42-1.32-2.63-2.64-3.62-3.12-2.33-4.68-5.45-4.68-9.29,0-3.48,1.08-6.35,3.23-8.62,2.15-2.27,5.77-4.37,10.82-6.54,6.76-2.92,12.57-4.68,17.28-4.77Z"/>
          <path d="M237.75,197.18c7.63-2.86,14.14-1.56,19.46,4.32,2.81,3.16,4.78,7.28,5.9,12.35,1.12,5.07,1.68,12.43,1.68,22.07-.05,8.14-.08,12.23-.13,20.4,0,14.16.48,23.3,1.45,27.39.48,1.95.95,3.18,1.39,3.67.44.49,1.36.87,2.77,1.13,1.41.26,2.11,2.15,2.11,5.65,0,4.55-.85,9.4-2.54,14.43-1.69,5.03-3.91,9.21-6.56,12.51-3.3,4.1-6.75,6.1-10.36,6.1-4.62,0-8.27-3.12-10.95-9.07-.92-2.15-1.78-3.18-2.57-3.14-.88.05-2.05,1.16-3.5,3.27-4.4,6.17-9.39,8.96-14.97,8.97-5.76,0-10.42-2.06-13.99-5.94-2.33-2.56-4.18-5.86-5.54-9.96-1.36-4.1-2.04-8.43-2.04-13.11,0-7.49,1.85-14.56,5.54-21.43,5.63-10.71,14.93-18.5,25.86-21.46,2.55-.69,4.16-1.61,4.82-2.76.66-1.15.99-3.52.99-7.09,0-9.02-.48-15.45-1.45-19.19-.97-3.74-2.55-5.23-4.75-4.47-1.32.45-2.5,1.62-3.53,3.49-1.03,1.87-2.32,5.08-3.86,9.58-3.91,11.83-8,18.03-12.27,19.19-2.16.59-3.92-.09-5.28-2.01-1.36-1.92-2.05-4.73-2.05-8.49s.85-7.96,2.54-12.41c1.69-4.46,3.99-8.68,6.89-12.68,7.22-8.55,14.56-17.43,24.93-21.31Z"/>
          <path d="M302.17,231.87v41.39c0,4.99.54,9.01,1.61,12.07,1.08,3.07,2.45,4.53,4.13,4.34,1.42-.17,3.3-1.92,5.63-5.34.55-.85,1.09-1.31,1.64-1.38.88-.11,1.68,1.05,2.41,3.51.73,2.46,1.09,5.21,1.09,8.23,0,5.51-1.24,10.96-3.72,16.18-5.18,11.07-11.45,16.34-18.81,16.35-5.83,0-10.52-3.8-14.06-10.92-3.54-7.12-5.31-16.25-5.31-27.76,0-17.73,0-35.46,0-53.18,0-1.74-.1-2.79-.3-3.15-.2-.35-.72-.41-1.56-.16-2.25.67-3.38,1-5.63,1.68-1.06.32-1.73.17-2.02-.45-.29-.62-.44-2.22-.44-4.8v-4.87c.04-2.22.46-3.98,1.26-5.28,8.42-13.62,16.75-27.3,25.05-41.01.62-.9,1.39-1.51,2.3-1.83,1.77-.63,2.66-.94,4.43-1.56.91-.32,1.52-.09,1.83.67.31.76.46,2.44.46,5.02v15.54c0,2.32.17,3.78.52,4.37.35.59,1.08.71,2.21.36,4.05-1.26,6.07-1.87,10.12-3.07,1.35-.4,2.23-.12,2.63.84.4.96.6,3.19.6,6.72v7.13c0,3.89-.26,6.67-.77,8.31-.51,1.64-1.44,2.64-2.79,2.98-3.96,1.02-5.94,1.55-9.9,2.62-1.02.28-1.71.87-2.08,1.76-.37.9-.55,2.46-.55,4.71Z"/>
          <path d="M350.81,205.41v72.18c0,5.95.23,10.36.68,13.16.46,2.8,1.38,5.38,2.76,7.76,1.13,1.94,1.89,3.6,2.27,4.97.38,1.38.57,3.13.57,5.27,0,11.51-5.96,17.41-17.88,17.42-6.42,0-11.5-1.24-15.26-3.63-1.28-.85-2.31-2.35-3.09-4.48-.78-2.13-1.18-4.54-1.18-7.27,0-2.3.2-4.09.6-5.39.4-1.3,1.42-3.4,3.06-6.33,1.13-2.04,1.93-5.31,2.41-9.76.47-4.45.71-11.02.71-19.57,0-2.74-.08-7.84-.25-15.18-.16-7.34-.28-11.53-.36-12.71-.21-3.23-1.24-5.54-3.06-6.86-2.25-1.63-3.39-4.49-3.39-8.6,0-4.89,1.48-8.87,4.43-12.02,4.08-4.35,8.46-8.64,13.13-11.47,4.67-2.83,8.28-4.36,10.83-4.59,2-.18,3.01,2.17,3.01,7.08ZM339.98,161.93c3.17-.54,5.69.27,7.55,2.43,1.86,2.16,2.79,5.35,2.79,9.53,0,5.86-1.4,10.71-4.21,14.48-4.45,5.95-9.83,9.1-16.13,10.75-2.66.7-4.78.15-6.34-1.48-2.05-2.13-3.17-5.56-3.17-10.3,0-6.37,2.25-11.98,6.73-16.87,4.56-4.97,8.82-7.88,12.8-8.56Z"/>
          <path d="M193.07,249.07v49.26c0,3.7.23,6.33.68,7.97.46,1.64,1.38,3.1,2.76,4.41,1.13,1.07,1.89,2.01,2.27,2.8.38.8.57,1.83.57,3.1,0,6.81-5.96,10.13-17.88,10.17-6.42.02-11.5-.6-15.26-1.85-1.28-.45-2.31-1.23-3.09-2.37-.78-1.13-1.18-2.43-1.18-3.9,0-1.24.2-2.22.6-2.92.4-.7,1.42-1.83,3.06-3.41,1.13-1.1,1.93-2.89,2.41-5.41.47-2.52.71-6.31.71-11.5,0-1.66-.08-4.78-.25-9.47-.16-4.69-.28-7.52-.36-8.31-.21-2.16-1.24-3.81-3.06-4.88-2.25-1.32-3.39-3.4-3.39-6.29,0-3.44,1.48-6.14,4.43-8.13,4.08-2.76,8.46-5.47,13.13-8.42,4.67-2.95,8.28-4.85,10.83-5.57,2-.56,3.01,1.02,3.01,4.71ZM182.24,216.45c3.17-.95,5.69-.7,7.55.76,1.86,1.46,2.79,3.91,2.79,7.33,0,4.78-1.4,8.95-4.21,12.49-4.45,5.58-9.83,9.78-16.13,10.52-2.66.31-4.78-.31-6.34-1.72-2.06-1.86-3.17-4.63-3.17-8.4,0-5.06,2.25-9.37,6.73-13.11,4.56-3.8,8.82-6.68,12.8-7.87Z"/>
          <path d="M417.99,211.87c-5.38,26.74-10.5,53.54-15.49,80.38-2.39,12.98-4.43,22.21-6.1,27.4-1.67,5.19-3.47,7.82-5.38,7.82s-3.39-1.97-4.55-5.89c-2.43-7.84-4.57-16.67-6.4-26.42-5.46-29.27-11.08-58.5-16.99-87.66-.92-4.51-1.8-7.71-2.66-9.65-.86-1.94-2.04-3.36-3.56-4.26-3.03-2-4.55-5.98-4.55-11.91s1.87-10.59,5.62-13.72c3.75-3.12,9.67-5.11,17.77-5.46,6.78-.29,11.78.97,14.99,3.51,3.21,2.54,4.82,6.46,4.82,11.68,0,3.69-.76,7.2-2.27,10.55-.96,2.23-1.58,3.92-1.85,5.05-.28,1.13-.42,2.58-.42,4.35,0,3.54.86,9.49,2.63,17.88,1.73,8.2,3.39,12.43,4.91,12.52,1,.06,1.81-.91,2.45-2.89.64-1.98,1.79-7.13,3.47-15.29,1.23-5.99,1.85-10.52,1.85-13.64,0-2.5-.66-5.52-1.91-9.02-1.36-3.81-2.03-7.32-2.03-10.49,0-4.91,1.27-8.34,3.8-10.25,2.53-1.91,6.69-2.57,12.47-1.69,8.14,1.24,12.2,6.67,12.2,15.58,0,5.17-1.46,8.63-4.37,10.46-2.27,1.44-3.82,3.21-4.64,5.25-.82,2.04-2.08,7.26-3.8,15.82Z"/>
          <path d="M461.83,172.1c7.65,3.2,14.14,10.83,19.46,21.84,2.81,5.87,4.78,11.89,5.9,18.03,1.12,6.14,1.68,14.02,1.68,23.75-.05,8.18-.08,12.28-.13,20.48,0,14.26.48,23.65,1.45,28.07.48,2.12.95,3.49,1.39,4.12.44.63,1.36,1.31,2.77,2.04,1.41.73,2.11,2.73,2.11,6.01,0,4.26-.85,8.55-2.54,13.06-1.69,4.51-3.91,8.36-6.56,11.53-3.3,3.95-6.75,6.14-10.36,6.13-4.62,0-8.27-3.58-10.95-11.01-.92-2.68-1.78-4.06-2.57-4.1-.88-.05-2.05,1.17-3.5,3.71-4.4,7.41-9.39,11.37-14.97,11.36-5.76,0-10.42-3.09-13.99-9.4-2.33-4.17-4.18-9.63-5.54-16.33-1.36-6.7-2.05-13.69-2.05-20.89,0-11.52,1.85-21.46,5.54-29.66,4.54-11.28,14.64-18.31,25.86-15.47,2.52.64,4.16.45,4.82-.54.66-.99.99-3.6.99-7.82,0-10.66-.48-18.47-1.45-23.55-.97-5.08-2.55-8.01-4.75-8.72-1.32-.43-2.5.12-3.53,1.64-1.03,1.52-2.32,4.5-3.86,9.03-3.91,12.02-8,17.92-12.27,17.15-2.16-.39-3.91-2.22-5.28-5.52-1.36-3.3-2.05-7.44-2.05-12.4s.85-9.97,2.54-14.64c1.69-4.68,3.99-8.55,6.89-11.55,7.96-7.94,16.27-10,24.93-6.38Z"/>
        </g>
      </g>
      <g>
        <g>
          <path class="cls-1" d="M15.12,114.91V48.47c0-8.64-.39-14.2-1.18-16.64-.78-2.43-2.96-4.57-6.38-6.42C2.54,22.71,0,18.81,0,13.75c0-3.56,1.06-6.21,3.19-8.08,2.13-1.86,5.21-2.82,9.24-2.76,1.34.02,4.68.19,10,.53,2.02.03,3.02.04,5.04.07,9.3.03,14.74-.04,16.34-.16,1.6-.13,7.29-.89,17.1-2.45,3.25-.59,6.22-.89,8.9-.89,9.19,0,17.36,3.43,24.53,10.42,14.77,14.47,19.22,37.04,18.73,56.49-.42,16.64-2.75,33.27-13.11,47.31-6.94,9.41-18.08,15.22-29.91,13.23-2.95-.5-6.65-1.54-10.92-3.02-2.26-.78-3.73-1.23-4.28-1.36-1.62-.37-2.44.93-2.44,3.94v.82c.24,9.03.35,13.52.59,22.45.11,4.36.6,7.7,1.47,10.05.87,2.35,2.68,5.03,5.34,7.94,3.64,4,5.46,7.84,5.46,11.52,0,5.64-2.69,9.35-8.06,10.21-5.38.86-13.01-.31-22.85-4.59-13.32-5.79-30.32-17.42-31.08-32.55-.11-2.28.45-3.93,1.34-4.63.9-.7,2.99-1.17,6.3-1.69,2.02-.37,3.19-1.93,3.53-4.58.34-2.64.56-11.63.67-27.07ZM53.01,36.55c0,16.04,0,32.08,0,48.13,0,3.64.48,5.91,1.43,6.83,1.62,1.61,3.67,2.63,6.13,3.04,3.7.62,6.81-.67,9.33-3.87,3.64-4.58,5.16-13.27,5.46-25.14.22-8.44-1.24-20.69-6.38-28.11-2.69-3.81-5.94-5.8-9.74-6.05-4.15-.27-6.22,1.45-6.22,5.17Z"/>
          <path class="cls-1" d="M177.5,127.98c-12.31,3.58-24.47,5.36-37.21,6.43-1.64.14-2.45,1.46-2.45,3.96,0,6.03,1.86,11.5,5.58,16.2,3.72,4.71,7.72,6.59,12,5.86,2.53-.43,5.34-1.68,8.43-4.07,3.09-2.39,5.63-5.05,7.64-7.93,1.79-2.57,3.22-4.01,4.28-4.31,1.37-.39,2.72.62,4.04,2.99,1.32,2.37,1.98,4.99,1.98,7.87,0,6.11-2.38,12.68-7.13,19.58-6.79,10.27-17.07,18.73-29.06,21.31-9.57,2.06-22.87-2.41-27.87-11.41-3.64-5.14-6.63-11.71-9.03-19.52-3.39-11.03-4.66-22.79-4.67-33.79-.01-14.68,2.05-30.55,8.08-44.28,4.15-9.46,9.27-19.35,17.74-26.22,5.38-4.37,11.29-6.64,17.5-6.85,9.33-.31,20.46,6.34,25.58,13.98,3.54,4.63,6.38,10.19,8.55,16.61,2.47,7.29,3.72,14.46,3.72,21.68,0,5.86-.71,10.79-2.14,14.87-1.42,4.08-3.27,6.42-5.54,7.04ZM142.34,107.76c3.2-.18,4.8-.29,8-.52,3.38-.25,5.07-3.17,5.07-8.82,0-5.18-.82-9.39-2.45-12.63-1.64-3.24-3.77-4.83-6.41-4.73-2.96.12-5.28,2.39-6.97,6.79-1.58,4.11-2.38,8.22-2.38,12.32,0,2.93.38,4.95,1.15,6.07.77,1.12,2.1,1.64,4,1.53Z"/>
          <path class="cls-1" d="M216.32,45.44c2.64-.44,4.28-.02,4.86,1.2.58,1.21,1.09,5.32,1.54,12.23.25,3.75,1.03,5.48,2.33,5.19,1-.22,1.96-1.67,2.86-4.33,4.02-11.48,9.26-17.5,15.74-18.54,4.57-.74,8.31,1.03,11.22,5.13,1.4,2.02,2.56,4.69,3.46,8.05.9,3.35,1.36,6.64,1.36,9.92,0,3.66-.55,7.57-1.66,11.76-1.1,4.19-2.54,7.83-4.29,10.9-3.21,5.81-7.16,9.51-11.82,10.95-2.56.79-4.71.71-6.44-.25-1.73-.96-4-3.3-6.82-7.13-1.05-1.47-2.03-2.08-2.94-1.83-1.41.39-2.32,1.98-2.75,4.78-.43,2.8-.64,8.51-.64,17.03,0,12.75.24,21.3.83,25.63.32,2.36.84,3.93,1.47,4.66.63.73,1.97,1.23,4.03,1.48,4.52.61,6.78,3.64,6.78,9.13,0,3.36-.73,6.56-2.18,9.6-1.46,3.04-3.39,5.4-5.8,7.1-4.82,3.4-11.9,6.81-21.24,10.05-8.89,3.09-15.66,4.04-20.26,2.97-4.11-.95-6.18-4.34-6.18-10.1,0-4.34,1.51-8.71,4.52-13.12,1.46-2.06,2.46-3.84,3.01-5.33.55-1.49.93-3.42,1.13-5.8,1.3-14.91,1.18-29.98,1.2-44.9,0-4.06-.25-6.95-.75-8.61-.5-1.66-1.51-2.87-3.01-3.63-3.57-1.76-5.35-5.18-5.35-10.19,0-4.54,1.23-8.73,3.69-12.46,2.46-3.74,6.59-7.72,12.35-11.87,7.73-5.57,14.35-8.75,19.73-9.65Z"/>
          <path class="cls-1" d="M327.7,83.36c-12.62,1.96-24.99,5.79-37.22,9.42-1.64.48-2.45,1.75-2.45,3.8,0,4.93,1.86,9.05,5.58,12.32,3.72,3.27,7.72,4.27,12,3.01,2.53-.74,5.34-2.27,8.43-4.53,3.09-2.27,5.63-4.67,7.64-7.21,1.79-2.27,3.22-3.35,4.28-3.51,1.37-.21,2.72.77,4.04,2.95,1.32,2.18,1.98,4.54,1.98,7.1,0,5.43-2.38,11.14-7.13,17.53-7.26,10.14-17.69,18.52-29.06,22.73-8.33,3.09-21.4,1.56-27.87-5.35-3.64-3.51-6.67-8.24-9.03-14.19-3.13-7.9-4.66-16.94-4.67-26.87-.01-12.97,2.93-26.07,8.08-37.75,3.58-8.12,10.41-17.6,17.74-22.91,5.37-3.89,11.22-6.31,17.5-7.23,10.03-1.46,18.55.84,25.58,6.54,3.54,3.24,6.38,7.18,8.55,11.85,2.47,5.31,3.72,10.65,3.72,16.07,0,4.4-.71,8.14-2.14,11.2-1.43,3.05-3.27,4.76-5.54,5.04ZM292.54,71.45c3.2-.82,4.8-1.23,8-2.02,3.38-.84,5.07-3.34,5.07-7.46,0-3.77-.82-6.6-2.45-8.6-1.64-1.99-3.77-2.73-6.41-2.19-2.96.61-5.28,2.63-6.97,6.15-1.58,3.28-2.38,6.48-2.38,9.54,0,2.18.38,3.62,1.15,4.3.77.68,2.1.77,4,.28Z"/>
          <path class="cls-1" d="M366.52,28.63c2.65.02,4.28.5,4.86,1.41.58.9,1.09,3.76,1.54,8.7.25,2.69,1.03,4.07,2.33,4.1,1,.03,1.96-.84,2.86-2.59,4.02-7.53,9.26-11.04,15.74-10.72,4.57.22,8.31,2.23,11.22,6.1,1.4,1.9,2.56,4.32,3.46,7.28.9,2.95,1.36,5.79,1.36,8.48,0,3.01-.55,6.06-1.66,9.14-1.1,3.08-2.54,5.57-4.29,7.46-3.21,3.63-7.16,5.24-11.82,4.9-2.56-.19-4.71-.9-6.44-2.17-1.73-1.27-4-3.76-6.82-7.41-1.05-1.39-2.03-2.09-2.94-2.11-1.41-.03-2.32.96-2.75,3-.43,2.04-.64,6.34-.64,13.09,0,10.1.24,17.34.83,21.13.32,2.07.84,3.55,1.47,4.35.63.8,1.97,1.61,4.03,2.47,4.52,1.92,6.78,5.32,6.78,10.09,0,2.92-.73,5.46-2.18,7.65-1.46,2.19-3.39,4.38-5.8,5.33-4.82,1.91-11.9,3.08-21.24,4.13-8.89,1-15.66.86-20.26-.86-4.11-1.54-6.18-4.96-6.18-10.39,0-4.09,1.51-8.01,4.52-11.62,1.46-1.68,2.46-3.13,3.01-4.37.55-1.24.93-2.88,1.13-4.9,1.22-11.85,1.22-23.87,1.2-35.76,0-3.02-.25-5.14-.75-6.4-.5-1.26-1.51-2.24-3.01-2.94-3.57-1.64-5.35-4.2-5.35-7.63,0-3.1,1.23-5.79,3.69-8.04,2.46-2.25,6.59-4.49,12.35-6.63,7.72-2.88,14.34-4.27,19.73-4.24Z"/>
          <path class="cls-1" d="M476.87,104.06c-11.86-5.9-24.25-10.75-36.97-14.43-1.63-.47-2.44.25-2.44,2.13,0,4.53,1.85,9.32,5.55,14.68,3.7,5.36,7.67,9.01,11.92,10.85,2.52,1.09,5.31,1.69,8.38,1.79s5.6-.34,7.59-1.38c1.78-.92,3.2-1.11,4.25-.54,1.36.74,2.7,2.73,4.01,6.04,1.31,3.31,1.97,6.37,1.97,9.09,0,5.77-2.36,9.77-7.08,12.04-8.3,3.9-20.85,3.22-28.87-.31-11.02-4.85-20.15-13.56-27.69-23.2-3.62-4.98-6.63-10.55-8.97-16.75-3.11-8.22-4.47-16.64-4.64-24.73-.2-9.01,2.8-20.91,8.02-28.44,4.65-6.69,10.5-11.68,17.62-14.51,5.35-2.13,11.27-2.72,17.39-1.99,9.43,1.13,20.48,8.52,25.41,16.7,3.51,5.03,6.34,10.94,8.5,17.59,2.45,7.57,3.7,14.82,3.7,21.31,0,5.28-.71,9.26-2.12,11.87-1.42,2.62-3.25,3.3-5.51,2.18ZM441.94,70.66c3.18.79,4.77,1.22,7.95,2.11,3.36.95,5.04-.65,5.04-4.89,0-3.88-.81-7.26-2.44-10.05-1.63-2.8-3.75-4.45-6.37-4.99-2.94-.61-5.24.47-6.92,3.11-1.57,2.47-2.36,5.11-2.36,7.97,0,2.04.38,3.55,1.14,4.55.76,1,2.08,1.72,3.97,2.19Z"/>
          <path class="cls-1" d="M430.25,27.48c-2.45.86-4.83-1.86-5.69-3.02-.86-1.17-1.29-2.61-1.29-4.34,0-1.58.66-3.24,1.98-5,1.32-1.76,3.62-4.02,6.9-6.88C438.36,2.86,442.82-.05,445.54,0c1.32.03,3.46,1.11,6.42,3.39,2.96,2.28,6.01,5.18,9.12,8.78,2.8,3.24,4.73,5.92,5.79,7.86,1.06,1.94,1.59,3.76,1.59,5.42s-.44,3.16-1.32,4.32c-.42.56-1.28,1.41-2.18,2.13-1.19.94-3,.91-4.47-.08-8.88-5.96-19.97-7.93-30.25-4.33Z"/>
        </g>
        <g>
          <path class="cls-1" d="M43.85,202.02c5.24,1.81,10.29,5.1,15.17,9.82,2.29,2.21,3.89,3.37,4.79,3.57.65.14,1.69.11,3.12-.09.47-.07.99-.05,1.56.06,1.86.35,3.5,1.95,4.9,4.77,3.44,6.82,5.16,14.7,5.16,23.65,0,6.3-1.49,10.64-4.47,13.14-1.61,1.33-3.43,1.87-5.43,1.59-1.83-.25-3.32-1.04-4.47-2.37-1.15-1.32-2.26-3.55-3.34-6.68-1.53-4.43-2.8-7.73-3.77-9.78-.97-2.05-2.15-4-3.55-5.85-3.48-4.51-7.12-7.4-10.92-8.55-3.69-1.12-6.63-.03-8.8,3.48-2.17,3.51-3.26,8.87-3.26,15.98,0,9.78,1.55,19.15,4.68,27.58,4.2,11.3,10.29,16.96,18.19,17.72,2.9.28,5.78-.15,8.64-1.25,2.85-1.1,5.06-2.67,6.64-4.63,1.34-1.66,2.47-2.45,3.34-2.37,1.26.11,2.33,1.01,3.23,2.66.9,1.66,1.34,3.59,1.34,5.81,0,2.8-.63,5.87-1.88,9.24-1.26,3.37-2.76,5.99-4.52,7.89-.75.79-2.33,1.48-4.68,2.02-1.35.31-3.17,1.14-5.43,2.56-5.31,3.36-10.83,5.16-16.57,5.15-5.99,0-11.97-2-17.92-6.33-7.58-5.52-13.89-16.28-16.41-25.1-3.52-12.33-5.96-23.64-5.92-35.75.04-11.27,1.42-24.09,7.43-34.79,4.32-7.69,9.92-12.19,16.84-14.04,5.27-1.42,10.71-1.03,16.3.91Z"/>
          <path class="cls-1" d="M111.72,213.94c2.31-.04,3.75.5,4.26,1.63.51,1.13.95,4.78,1.35,10.79.22,3.27.9,4.88,2.05,4.85.88-.02,1.72-1.11,2.51-3.3,3.52-9.44,8.11-14.68,13.79-15.26,4-.41,7.28,1.51,9.83,5.84,1.23,2.13,2.24,4.94,3.03,8.38.79,3.44,1.19,6.76,1.19,9.95,0,3.57-.48,7.23-1.45,10.95-.97,3.72-2.22,6.74-3.76,9.11-2.81,4.51-6.27,6.75-10.36,6.86-2.24.06-4.12-.53-5.64-1.75s-3.51-3.72-5.97-7.57c-.92-1.47-1.78-2.2-2.57-2.2-1.23,0-2.03,1.12-2.41,3.32-.37,2.2-.56,6.83-.56,13.66,0,10.21.21,16.89.73,20.38.28,1.91.74,3.25,1.29,3.99.55.74,1.73,1.49,3.53,2.26,3.96,1.73,5.94,4.69,5.94,8.79,0,2.51-.64,4.67-1.91,6.5-1.28,1.83-2.97,3.03-5.08,3.62-4.22,1.18-10.42,1.77-18.6,1.76-7.78,0-13.71-.95-17.74-2.94-3.6-1.77-5.41-4.92-5.41-9.38,0-3.36,1.32-6.35,3.96-8.9,1.27-1.18,2.15-2.26,2.64-3.25.48-.99.81-2.36.99-4.13,1.15-11.33,1.07-22.88,1.06-34.24,0-3.14-.22-5.45-.66-6.87-.44-1.42-1.32-2.63-2.64-3.62-3.12-2.33-4.68-5.45-4.68-9.29,0-3.48,1.08-6.35,3.23-8.62,2.15-2.27,5.77-4.37,10.82-6.54,6.76-2.92,12.57-4.68,17.28-4.77Z"/>
          <path class="cls-1" d="M225.78,187c7.63-2.86,14.14-1.56,19.46,4.32,2.81,3.16,4.78,7.28,5.9,12.35,1.12,5.07,1.68,12.43,1.68,22.07-.05,8.14-.08,12.23-.13,20.4,0,14.16.48,23.3,1.45,27.39.48,1.95.95,3.18,1.39,3.67.44.49,1.36.87,2.77,1.13,1.41.26,2.11,2.15,2.11,5.65,0,4.55-.85,9.4-2.54,14.43-1.69,5.03-3.91,9.21-6.56,12.51-3.3,4.1-6.75,6.1-10.36,6.1-4.62,0-8.27-3.12-10.95-9.07-.92-2.15-1.78-3.18-2.57-3.14-.88.05-2.05,1.16-3.5,3.27-4.4,6.17-9.39,8.96-14.97,8.97-5.76,0-10.42-2.06-13.99-5.94-2.33-2.56-4.18-5.86-5.54-9.96-1.36-4.1-2.04-8.43-2.04-13.11,0-7.49,1.85-14.56,5.54-21.43,5.63-10.71,14.93-18.5,25.86-21.46,2.55-.69,4.16-1.61,4.82-2.76.66-1.15.99-3.52.99-7.09,0-9.02-.48-15.45-1.45-19.19-.97-3.74-2.55-5.23-4.75-4.47-1.32.45-2.5,1.62-3.53,3.49-1.03,1.87-2.32,5.08-3.86,9.58-3.91,11.83-8,18.03-12.27,19.19-2.16.59-3.92-.09-5.28-2.01-1.36-1.92-2.05-4.73-2.05-8.49s.85-7.96,2.54-12.41c1.69-4.46,3.99-8.68,6.89-12.68,7.22-8.55,14.56-17.43,24.93-21.31ZM221.37,262.4c-1.89.36-3.62,2.29-5.05,5.52-1.43,3.23-2.14,6.82-2.14,10.84s.5,6.87,1.52,9.11c1.01,2.23,2.35,3.27,4.02,3.07,3.52-.41,5.28-6.2,5.28-17.5,0-4.6-.25-7.66-.76-9.15-.5-1.48-1.51-2.15-2.87-1.89Z"/>
          <path class="cls-1" d="M290.2,221.69v41.39c0,4.99.54,9.01,1.61,12.07,1.08,3.07,2.45,4.53,4.13,4.34,1.42-.17,3.3-1.92,5.63-5.34.55-.85,1.09-1.31,1.64-1.38.88-.11,1.68,1.05,2.41,3.51.73,2.46,1.09,5.21,1.09,8.23,0,5.51-1.24,10.96-3.72,16.18-5.18,11.07-11.45,16.34-18.81,16.35-5.83,0-10.52-3.8-14.06-10.92-3.54-7.12-5.31-16.25-5.31-27.76,0-17.73,0-35.46,0-53.18,0-1.74-.1-2.79-.3-3.15-.2-.35-.72-.41-1.56-.16-2.25.67-3.38,1-5.63,1.68-1.06.32-1.73.17-2.02-.45-.29-.62-.44-2.22-.44-4.8v-4.87c.04-2.22.46-3.98,1.26-5.28,8.42-13.62,16.75-27.3,25.05-41.01.62-.9,1.39-1.51,2.3-1.83,1.77-.63,2.66-.94,4.43-1.56.91-.32,1.52-.09,1.83.67.31.76.46,2.44.46,5.02v15.54c0,2.32.17,3.78.52,4.37.35.59,1.08.71,2.21.36,4.05-1.26,6.07-1.87,10.12-3.07,1.35-.4,2.23-.12,2.63.84.4.96.6,3.19.6,6.72v7.13c0,3.89-.26,6.67-.77,8.31-.51,1.64-1.44,2.64-2.79,2.98-3.96,1.02-5.94,1.55-9.9,2.62-1.02.28-1.71.87-2.08,1.76-.37.9-.55,2.46-.55,4.71Z"/>
          <path class="cls-1" d="M338.84,195.22v72.18c0,5.95.23,10.36.68,13.16.46,2.8,1.38,5.38,2.76,7.76,1.13,1.94,1.89,3.6,2.27,4.97.38,1.38.57,3.13.57,5.27,0,11.51-5.96,17.41-17.88,17.42-6.42,0-11.5-1.24-15.26-3.63-1.28-.85-2.31-2.35-3.09-4.48-.78-2.13-1.18-4.54-1.18-7.27,0-2.3.2-4.09.6-5.39.4-1.3,1.42-3.4,3.06-6.33,1.13-2.04,1.93-5.31,2.41-9.76.47-4.45.71-11.02.71-19.57,0-2.74-.08-7.84-.25-15.18-.16-7.34-.28-11.53-.36-12.71-.21-3.23-1.24-5.54-3.06-6.86-2.25-1.63-3.39-4.49-3.39-8.6,0-4.89,1.48-8.87,4.43-12.02,4.08-4.35,8.46-8.64,13.13-11.47,4.67-2.83,8.28-4.36,10.83-4.59,2-.18,3.01,2.17,3.01,7.08ZM328.01,151.74c3.17-.54,5.69.27,7.55,2.43,1.86,2.16,2.79,5.35,2.79,9.53,0,5.86-1.4,10.71-4.21,14.48-4.45,5.95-9.83,9.1-16.13,10.75-2.66.7-4.78.15-6.34-1.48-2.05-2.13-3.17-5.56-3.17-10.3,0-6.37,2.25-11.98,6.73-16.87,4.56-4.97,8.82-7.88,12.8-8.56Z"/>
          <path class="cls-1" d="M181.11,238.89v49.26c0,3.7.23,6.33.68,7.97.46,1.64,1.38,3.1,2.76,4.41,1.13,1.07,1.89,2.01,2.27,2.8.38.8.57,1.83.57,3.1,0,6.81-5.96,10.13-17.88,10.17-6.42.02-11.5-.6-15.26-1.85-1.28-.45-2.31-1.23-3.09-2.37-.78-1.13-1.18-2.43-1.18-3.9,0-1.24.2-2.22.6-2.92.4-.7,1.42-1.83,3.06-3.41,1.13-1.1,1.93-2.89,2.41-5.41.47-2.52.71-6.31.71-11.5,0-1.66-.08-4.78-.25-9.47-.16-4.69-.28-7.52-.36-8.31-.21-2.16-1.24-3.81-3.06-4.88-2.25-1.32-3.39-3.4-3.39-6.29,0-3.44,1.48-6.14,4.43-8.13,4.08-2.76,8.46-5.47,13.13-8.42,4.67-2.95,8.28-4.85,10.83-5.57,2-.56,3.01,1.02,3.01,4.71ZM170.28,206.26c3.17-.95,5.69-.7,7.55.76,1.86,1.46,2.79,3.91,2.79,7.33,0,4.78-1.4,8.95-4.21,12.49-4.45,5.58-9.83,9.78-16.13,10.52-2.66.31-4.78-.31-6.34-1.72-2.06-1.86-3.17-4.63-3.17-8.4,0-5.06,2.25-9.37,6.73-13.11,4.56-3.8,8.82-6.68,12.8-7.87Z"/>
          <path class="cls-1" d="M406.02,201.69c-5.38,26.74-10.5,53.54-15.49,80.38-2.39,12.98-4.43,22.21-6.1,27.4-1.67,5.19-3.47,7.82-5.38,7.82s-3.39-1.97-4.55-5.89c-2.43-7.84-4.57-16.67-6.4-26.42-5.46-29.27-11.08-58.5-16.99-87.66-.92-4.51-1.8-7.71-2.66-9.65-.86-1.94-2.04-3.36-3.56-4.26-3.03-2-4.55-5.98-4.55-11.91s1.87-10.59,5.62-13.72c3.75-3.12,9.67-5.11,17.77-5.46,6.78-.29,11.78.97,14.99,3.51,3.21,2.54,4.82,6.46,4.82,11.68,0,3.69-.76,7.2-2.27,10.55-.96,2.23-1.58,3.92-1.85,5.05-.28,1.13-.42,2.58-.42,4.35,0,3.54.86,9.49,2.63,17.88,1.73,8.2,3.39,12.43,4.91,12.52,1,.06,1.81-.91,2.45-2.89.64-1.98,1.79-7.13,3.47-15.29,1.23-5.99,1.85-10.52,1.85-13.64,0-2.5-.66-5.52-1.91-9.02-1.36-3.81-2.03-7.32-2.03-10.49,0-4.91,1.27-8.34,3.8-10.25,2.53-1.91,6.69-2.57,12.47-1.69,8.14,1.24,12.2,6.67,12.2,15.58,0,5.17-1.46,8.63-4.37,10.46-2.27,1.44-3.82,3.21-4.64,5.25-.82,2.04-2.08,7.26-3.8,15.82Z"/>
          <path class="cls-1" d="M449.87,161.92c7.65,3.2,14.14,10.83,19.46,21.84,2.81,5.87,4.78,11.89,5.9,18.03,1.12,6.14,1.68,14.02,1.68,23.75-.05,8.18-.08,12.28-.13,20.48,0,14.26.48,23.65,1.45,28.07.48,2.12.95,3.49,1.39,4.12.44.63,1.36,1.31,2.77,2.04,1.41.73,2.11,2.73,2.11,6.01,0,4.26-.85,8.55-2.54,13.06-1.69,4.51-3.91,8.36-6.56,11.53-3.3,3.95-6.75,6.14-10.36,6.13-4.62,0-8.27-3.58-10.95-11.01-.92-2.68-1.78-4.06-2.57-4.1-.88-.05-2.05,1.17-3.5,3.71-4.4,7.41-9.39,11.37-14.97,11.36-5.76,0-10.42-3.09-13.99-9.4-2.33-4.17-4.18-9.63-5.54-16.33-1.36-6.7-2.05-13.69-2.05-20.89,0-11.52,1.85-21.46,5.54-29.66,4.54-11.28,14.64-18.31,25.86-15.47,2.52.64,4.16.45,4.82-.54.66-.99.99-3.6.99-7.82,0-10.66-.48-18.47-1.45-23.55-.97-5.08-2.55-8.01-4.75-8.72-1.32-.43-2.5.12-3.53,1.64-1.03,1.52-2.32,4.5-3.86,9.03-3.91,12.02-8,17.92-12.27,17.15-2.16-.39-3.91-2.22-5.28-5.52-1.36-3.3-2.05-7.44-2.05-12.4s.85-9.97,2.54-14.64c1.69-4.68,3.99-8.55,6.89-11.55,7.96-7.94,16.27-10,24.93-6.38ZM445.45,247.75c-1.86-.43-3.62,1.15-5.05,4.65-1.43,3.5-2.14,7.91-2.14,13.16s.5,9.19,1.52,12.4c1.01,3.21,2.35,4.88,4.02,5.04,3.52.35,5.28-6.41,5.28-20.18,0-5.61-.25-9.41-.76-11.45-.51-2.03-1.5-3.31-2.87-3.63Z"/>
        </g>
      </g>
    </g>
  </g>
</svg>